<?xml version='1.0' encoding='iso-8859-1'?>
<svg fill="#64748B" version="1.1" xmlns="http://www.w3.org/2000/svg" viewBox="0 0 30 30" xmlns:xlink="http://www.w3.org/1999/xlink" enable-background="new 0 0 30 30">
  <path d="m15.8,1.7c0.2-0.3 0.3-0.7 0.1-1.1-0.2-0.3-0.3-0.6-0.9-0.6-8.3,0-15,6.7-15,15s6.7,15 15,15 15-6.7 15-15c0-0.5-0.4-0.9-0.9-0.9-1.3,0-2,1.6-3.2,2-1,0.4-2.1,0.5-3.2,0.5-5.2,0-9.5-4.3-9.5-9.5 0-1.2 0.2-2.4 0.6-3.4 0.5-0.7 1.4-1.2 2-2zm-7,24.8c-4.1-2.2-6.8-6.5-6.8-11.4 0-5.2 3-9.6 7.4-11.7 1.1-0.5 2.4,0.4 2.1,1.6-0.2,0.8-0.2,1.5-0.2,2.3 0,6.3 5.2,11.5 11.5,11.5 2.9,0 0.2,3.6-3.8,5.9-3.5,2-8.1,3-10.2,1.8z"/>
</svg>
