<svg version="1.1" xmlns="http://www.w3.org/2000/svg" xmlns:xlink="http://www.w3.org/1999/xlink" viewBox="170.8 100.8 358.4 358.4">  <g>   <path d="m238 459.2h224c17.824 0 34.914-7.0781 47.516-19.684 12.605-12.602 19.684-29.691 19.684-47.516v-224c0-17.824-7.0781-34.914-19.684-47.516-12.602-12.605-29.691-19.684-47.516-19.684h-224c-17.824 0-34.914 7.0781-47.516 19.684-12.605 12.602-19.684 29.691-19.684 47.516v224c0 17.824 7.0781 34.914 19.684 47.516 12.602 12.605 29.691 19.684 47.516 19.684zm204.23-313.6h19.77c5.9414 0 11.637 2.3594 15.84 6.5586 4.1992 4.2031 6.5586 9.8984 6.5586 15.84v33.602h-70.168zm-106.4 0h56.336l-28 56h-56.336zm-120.23 22.398c0-5.9414 2.3594-11.637 6.5586-15.84 4.2031-4.1992 9.8984-6.5586 15.84-6.5586h47.77l-28 56h-42.168zm0 78.398h268.8v145.6c0 5.9414-2.3594 11.637-6.5586 15.84-4.2031 4.1992-9.8984 6.5586-15.84 6.5586h-224c-5.9414 0-11.637-2.3594-15.84-6.5586-4.1992-4.2031-6.5586-9.8984-6.5586-15.84z"></path>   <path d="m450.8 358.4c0 12.371-10.031 22.402-22.402 22.402-12.371 0-22.398-10.031-22.398-22.402 0-12.371 10.027-22.398 22.398-22.398 12.371 0 22.402 10.027 22.402 22.398"></path>   <path d="m372.4 358.4c0 12.371-10.027 22.402-22.398 22.402s-22.398-10.031-22.398-22.402c0-12.371 10.027-22.398 22.398-22.398s22.398 10.027 22.398 22.398"></path>   <path d="m294 358.4c0 12.371-10.027 22.402-22.398 22.402-12.371 0-22.402-10.031-22.402-22.402 0-12.371 10.031-22.398 22.402-22.398 12.371 0 22.398 10.027 22.398 22.398"></path>  </g> </svg>