<svg xmlns="http://www.w3.org/2000/svg" xmlns:xlink="http://www.w3.org/1999/xlink" version="1.1" viewBox="182 111.95 336 336.11"> <g>  <path d="m350 212.8c-17.824 0-34.914 7.0781-47.516 19.684-12.605 12.602-19.684 29.691-19.684 47.516s7.0781 34.914 19.684 47.516c12.602 12.605 29.691 19.684 47.516 19.684s34.914-7.0781 47.516-19.684c12.605-12.602 19.684-29.691 19.684-47.516s-7.0781-34.914-19.684-47.516c-12.602-12.605-29.691-19.684-47.516-19.684zm0 89.602v-0.003906c-5.9414 0-11.637-2.3594-15.84-6.5586-4.1992-4.2031-6.5586-9.8984-6.5586-15.84s2.3594-11.637 6.5586-15.84c4.2031-4.1992 9.8984-6.5586 15.84-6.5586s11.637 2.3594 15.84 6.5586c4.1992 4.2031 6.5586 9.8984 6.5586 15.84s-2.3594 11.637-6.5586 15.84c-4.2031 4.1992-9.8984 6.5586-15.84 6.5586z"></path>  <path d="m518 192.53c0-24.039-10.734-46.824-29.27-62.133-18.539-15.305-42.941-21.539-66.547-16.996l-118.83 22.848c-24.078 4.5703-46.223 16.277-63.559 33.602l-1.9609 2.1289c-16.25 17.055-27.219 38.449-31.586 61.598l-22.789 118.66c-5.0547 26.254 3.2461 53.305 22.148 72.211 18.906 18.906 45.957 27.203 72.211 22.152l118.83-22.848c23.805-4.5625 45.715-16.102 62.945-33.152 0.93359-0.89453 1.8125-1.8281 2.6328-2.8008h-0.003906c16.156-16.977 27.082-38.246 31.473-61.266l22.848-118.77c0.96875-5.0234 1.4531-10.121 1.457-15.234zm-45.414 6.7773-22.906 118.83c-2.918 15.242-10.328 29.266-21.281 40.262-10.996 11.004-25.043 18.457-40.32 21.395l-118.72 22.793c-11.652 2.2344-23.656-1.4492-32.047-9.8398s-12.078-20.398-9.8398-32.051l22.848-118.83c2.918-15.242 10.328-29.266 21.281-40.262 10.996-11.004 25.043-18.457 40.32-21.395l118.72-22.793c11.652-2.2344 23.656 1.4492 32.047 9.8398s12.078 20.398 9.8398 32.051z"></path> </g></svg>