<?xml version="1.0" encoding="UTF-8"?>
<svg width="700pt" height="700pt" version="1.1" viewBox="0 0 700 700" xmlns="http://www.w3.org/2000/svg" xmlns:xlink="http://www.w3.org/1999/xlink">

 <g>
  <path d="m306.32 203.17c7.6133-19.898 5.3398-42.223-6.125-60.18-11.465-17.953-30.766-29.406-52.02-30.871-21.25-1.4648-41.941 7.2305-55.758 23.445-13.82 16.211-19.137 38.016-14.324 58.77 4.8086 20.75 19.172 37.992 38.715 46.473 19.543 8.4766 41.949 7.1875 60.391-3.4766l58.746 42.672-58.746 42.672c-18.523-10.719-41.031-12.016-60.664-3.4961-19.633 8.5234-34.059 25.852-38.879 46.703-4.8203 20.848 0.53516 42.75 14.434 59.023 13.898 16.273 34.695 24.988 56.043 23.488 21.348-1.5 40.719-13.035 52.207-31.094 11.484-18.059 13.727-40.492 6.0352-60.465l67.762-49.168 149.46 108.47v-55.328l-111.39-80.809 111.39-80.809v-55.328l-149.52 108.47zm-62.719-1.5664c-5.9414 0-11.641-2.3633-15.84-6.5625-4.2031-4.1992-6.5625-9.8984-6.5625-15.84 0-5.9414 2.3594-11.637 6.5625-15.84 4.1992-4.1992 9.8984-6.5586 15.84-6.5586 5.9375 0 11.637 2.3594 15.836 6.5586 4.2031 4.2031 6.5625 9.8984 6.5625 15.84 0 5.9414-2.3594 11.641-6.5625 15.84-4.1992 4.1992-9.8984 6.5625-15.836 6.5625zm0 201.6v-0.003906c-5.9414 0-11.641-2.3594-15.84-6.5586-4.2031-4.2031-6.5625-9.8984-6.5625-15.84 0-5.9414 2.3594-11.641 6.5625-15.84 4.1992-4.1992 9.8984-6.5625 15.84-6.5625 5.9375 0 11.637 2.3633 15.836 6.5625 4.2031 4.1992 6.5625 9.8984 6.5625 15.84 0 5.9414-2.3594 11.637-6.5625 15.84-4.1992 4.1992-9.8984 6.5586-15.836 6.5586z"/>
 
 </g>
</svg>
