<?xml version="1.0" encoding="UTF-8"?>
<svg width="700pt" height="700pt" version="1.1" viewBox="0 0 700 700" xmlns="http://www.w3.org/2000/svg" xmlns:xlink="http://www.w3.org/1999/xlink">
 
 <g>
  <path d="m483.34 265.72h-3.3047c-4.3125 0.25781-8.5742 1.1055-12.656 2.5195-8.3125 2.7266-17.008 4.1055-25.758 4.0898-26.984-0.007813-52.32-12.98-68.105-34.863-15.781-21.883-20.094-50.02-11.582-75.625 3.4102-10.199 3.0352-21.285-1.0508-31.23-4.0859-9.9492-11.613-18.094-21.211-22.949-9.5938-4.8555-20.617-6.0977-31.051-3.5-41.133 10.258-77.297 34.77-102.07 69.172-24.766 34.402-36.535 76.473-33.219 118.73 3.3203 42.262 21.516 81.98 51.352 112.09 29.84 30.113 69.383 48.676 111.61 52.387s84.406-7.6719 119.04-32.121c34.629-24.449 59.473-60.383 70.113-101.42 1.1523-4.0625 1.7344-8.2656 1.7344-12.488 0.003906-11.719-4.5859-22.973-12.781-31.348-8.1992-8.375-19.352-13.203-31.066-13.453zm-131.32 146.66c-44.09-0.042968-85.355-21.711-110.43-57.98-25.066-36.273-30.754-82.531-15.211-123.79 15.543-41.262 50.332-72.273 93.102-82.992-10.129 30.402-8.5586 63.492 4.4062 92.801 12.961 29.309 36.387 52.734 65.695 65.695 29.309 12.965 62.398 14.535 92.801 4.4062-7.2578 29.086-24.031 54.91-47.652 73.371-23.621 18.457-52.738 28.484-82.715 28.492z"/>
 
 </g>
</svg>
