<?xml version="1.0" encoding="UTF-8"?>
<svg width="700pt" height="700pt" version="1.1" viewBox="0 0 700 700" xmlns="http://www.w3.org/2000/svg" xmlns:xlink="http://www.w3.org/1999/xlink">

 <g>
  <path d="m400.4 212.8c0 5.9414 2.3633 11.637 6.5625 15.84 4.1992 4.1992 9.8984 6.5586 15.84 6.5586h67.199c8.0039 0 15.398-4.2695 19.398-11.199s4-15.469 0-22.398c-4-6.9336-11.395-11.203-19.398-11.203h-67.199c-5.9414 0-11.641 2.3633-15.84 6.5625-4.1992 4.1992-6.5625 9.8984-6.5625 15.84z"/>
  <path d="m467.6 100.8h-67.203c-8 0-15.395 4.2695-19.398 11.199-4 6.9297-4 15.469 0 22.398 4.0039 6.9336 11.398 11.203 19.398 11.203h67.203c8 0 15.395-4.2695 19.398-11.203 4-6.9297 4-15.469 0-22.398-4.0039-6.9297-11.398-11.199-19.398-11.199z"/>
  <path d="m256.14 156.18c1.2344-3.0977 3.3633-5.7617 6.1172-7.6445 2.75-1.8867 6.0039-2.9102 9.3398-2.9375h39.199c8.0039 0 15.398-4.2695 19.398-11.203 4-6.9297 4-15.469 0-22.398s-11.395-11.199-19.398-11.199h-39.199c-12.309 0-24.328 3.6875-34.52 10.586-10.191 6.8945-18.082 16.688-22.656 28.109l-38.027 94.75c-10.242 25.613-6.9844 54.648 8.6758 77.355 15.656 22.707 41.645 36.07 69.223 35.598h3.6953l-4.5352 13.609c-4.1328 11.801-5.2852 24.438-3.3594 36.793 2.8633 17.227 11.758 32.879 25.09 44.16 13.336 11.281 30.242 17.461 47.707 17.438h15.906c7.4922 0.003906 14.488-3.7344 18.648-9.9688l82.934-124.43h66.418c8.0039 0 15.398-4.2695 19.398-11.199 4-6.9336 4-15.473 0-22.402-4-6.9297-11.395-11.199-19.398-11.199h-78.402c-7.4922-0.003906-14.488 3.7344-18.645 9.9688l-82.938 124.43h-4.0312c-9.2539-0.015626-17.938-4.4688-23.348-11.973-5.4102-7.5078-6.8906-17.156-3.9805-25.938l20.328-61.039c1.0078-3.0234 0.5-6.3477-1.3633-8.9336s-4.8594-4.1172-8.0469-4.1172h-52.246c-11.719 0.20703-22.887-4.9766-30.297-14.055-4.1523-5.1953-6.8555-11.398-7.8398-17.977-0.98438-6.582-0.21094-13.305 2.2383-19.488z"/>
 
 </g>
</svg>
