<?xml version="1.0" encoding="UTF-8"?>
<svg width="700pt" height="700pt" version="1.1" viewBox="0 0 700 700" xmlns="http://www.w3.org/2000/svg" xmlns:xlink="http://www.w3.org/1999/xlink">

 <g>
  <path d="m513.02 204.85c-50.914-24.246-106.59-36.828-162.99-36.828-56.391 0-112.07 12.582-162.99 36.828-4.832 2.2383-8.9297 5.8086-11.805 10.289-2.8789 4.4844-4.4141 9.6953-4.4336 15.023 0.085938 9.6289 5.1172 18.539 13.316 23.59 8.1992 5.0508 18.422 5.5312 27.059 1.2734 17.73-8.2656 36.172-14.898 55.105-19.824-13.645 20.324-19.426 44.922-16.266 69.195 3.1602 24.277 15.047 46.57 33.441 62.723 18.391 16.156 42.035 25.062 66.516 25.062 24.48 0 48.121-8.9062 66.516-25.062 18.395-16.152 30.281-38.445 33.441-62.723 3.1602-24.273-2.6211-48.871-16.266-69.195 18.961 5.0117 37.422 11.742 55.16 20.105 8.6641 4.2695 18.918 3.7695 27.129-1.3203s13.219-14.051 13.246-23.711c0.007812-5.3398-1.5117-10.57-4.3789-15.078-2.8672-4.5039-6.9648-8.0938-11.805-10.348zm-163.02 131.15c-16.004 0-30.797-8.5391-38.797-22.398-8.0039-13.863-8.0039-30.941 0-44.801 8-13.863 22.793-22.402 38.797-22.402v39.203c0 1.4844 0.58984 2.9062 1.6406 3.957 1.0508 1.0508 2.4727 1.6406 3.9609 1.6406h39.199c0 11.883-4.7227 23.277-13.121 31.68-8.4023 8.4023-19.797 13.121-31.68 13.121z"/>
 
 </g>
</svg>
