<?xml version="1.0" encoding="UTF-8"?>
<svg width="700pt" height="700pt" version="1.1" viewBox="0 0 700 700" xmlns="http://www.w3.org/2000/svg" xmlns:xlink="http://www.w3.org/1999/xlink">

 <g>
  <path d="m338.8 190.4c-5.9414 0-11.641 2.3633-15.84 6.5625-4.1992 4.1992-6.5625 9.8984-6.5625 15.84v56c0 13.367 5.3125 26.188 14.762 35.637 9.4531 9.4531 22.273 14.762 35.641 14.762h39.199c8.0039 0 15.398-4.2695 19.398-11.199s4-15.469 0-22.398c-4-6.9336-11.395-11.203-19.398-11.203h-39.199c-3.0938 0-5.6016-2.5039-5.6016-5.5977v-56c0-5.9414-2.3594-11.641-6.5586-15.84-4.2031-4.1992-9.8984-6.5625-15.84-6.5625"/>
  <path d="m193.2 453.6h50.402c16.336 0 32.004-6.4922 43.555-18.043 11.555-11.555 18.043-27.223 18.043-43.559v-50.398c0-8.0039-4.2695-15.398-11.199-19.402-6.9297-4-15.469-4-22.398 0-6.9336 4.0039-11.203 11.398-11.203 19.402v38.586-0.003906c-30.617-27.387-47.027-67.273-44.551-108.28 2.4805-41.004 23.574-78.625 57.27-102.12 33.691-23.5 76.285-30.301 115.62-18.465 39.336 11.84 71.102 41.02 86.223 79.215 15.125 38.195 11.953 81.211-8.6133 116.77-20.566 35.562-56.266 59.766-96.914 65.703-5.3398 0.71484-10.238 3.3242-13.809 7.3555-3.5664 4.0312-5.5664 9.2148-5.625 14.598v0.61719-0.003906c0.097656 6.4297 2.9531 12.508 7.8398 16.688 4.8828 4.1758 11.332 6.0547 17.695 5.1523 40.082-5.7422 77.039-24.887 104.85-54.32 27.809-29.434 44.828-67.418 48.285-107.76 3.4609-40.344-6.8477-80.668-29.238-114.41-22.395-33.734-55.551-58.895-94.07-71.375-38.523-12.48-80.133-11.547-118.05 2.6484-37.922 14.195-69.918 40.812-90.777 75.52-20.859 34.707-29.348 75.453-24.082 115.6 5.2617 40.148 23.969 77.332 53.066 105.49h-32.312c-8.0039 0-15.398 4.2695-19.398 11.199s-4 15.469 0 22.398c4 6.9336 11.395 11.203 19.398 11.203"/>
 
 </g>
</svg>
