<svg xmlns="http://www.w3.org/2000/svg" xmlns:xlink="http://www.w3.org/1999/xlink" version="1.1" viewBox="170.8 100.8 358.4 358.4">
 <g>
  <path d="m372.4 224c0 12.371-10.027 22.398-22.398 22.398s-22.398-10.027-22.398-22.398 10.027-22.398 22.398-22.398 22.398 10.027 22.398 22.398"/>
  <path d="m238 459.2h224c17.824 0 34.914-7.0781 47.516-19.684 12.605-12.602 19.684-29.691 19.684-47.516v-143.19c0.082031-26.883-13.176-52.059-35.391-67.199l-98.113-66.699c-13.465-9.1914-29.391-14.113-45.695-14.113s-32.23 4.9219-45.695 14.113l-98.113 66.867c-22.215 15.141-35.473 40.316-35.391 67.199v143.02c0 17.824 7.0781 34.914 19.684 47.516 12.602 12.605 29.691 19.684 47.516 19.684zm78.398-44.801v-72.797c0-6.1875 5.0156-11.203 11.203-11.203h44.801-0.003906c2.9727 0 5.8203 1.1797 7.9219 3.2812 2.1016 2.1016 3.2812 4.9492 3.2812 7.9219v72.797zm-100.8-165.59c-0.003906-12.012 5.9297-23.242 15.848-30.016l98.109-66.863c6.0195-4.125 13.145-6.3281 20.441-6.3281s14.422 2.2031 20.441 6.3281l98.109 66.863c9.918 6.7734 15.852 18.004 15.848 30.016v143.19c0 5.9414-2.3594 11.637-6.5586 15.84-4.2031 4.1992-9.8984 6.5586-15.84 6.5586h-33.602v-72.797c0-14.855-5.8984-29.098-16.402-39.598-10.5-10.504-24.742-16.402-39.598-16.402h-44.797c-14.855 0-29.098 5.8984-39.598 16.402-10.504 10.5-16.402 24.742-16.402 39.598v72.797h-33.602c-5.9414 0-11.637-2.3594-15.84-6.5586-4.1992-4.2031-6.5586-9.8984-6.5586-15.84z"/>
 </g>
</svg>