<?xml version="1.0" encoding="UTF-8"?>
<svg width="700pt" height="700pt" version="1.1" viewBox="0 0 700 700" xmlns="http://www.w3.org/2000/svg" xmlns:xlink="http://www.w3.org/1999/xlink">

 <g>
  <path d="m478.8 106.4h-56c-11.883 0-23.277 4.7227-31.68 13.125-8.4023 8.3984-13.121 19.793-13.121 31.676v67.199c0 11.883 4.7188 23.277 13.121 31.68s19.797 13.121 31.68 13.121h56c11.883 0 23.277-4.7188 31.676-13.121 8.4023-8.4023 13.125-19.797 13.125-31.68v-67.199c0-11.883-4.7227-23.277-13.125-31.676-8.3984-8.4023-19.793-13.125-31.676-13.125zm0 112h-56v-67.199h56z"/>
  <path d="m254.8 263.2c20.793 0 40.734-8.2578 55.438-22.961s22.961-34.645 22.961-55.438-8.2578-40.734-22.961-55.438-34.645-22.965-55.438-22.965-40.734 8.2617-55.438 22.965-22.965 34.645-22.965 55.438 8.2617 40.734 22.965 55.438 34.645 22.961 55.438 22.961zm0-112c8.9102 0 17.457 3.5391 23.758 9.8438 6.3008 6.3008 9.8398 14.848 9.8398 23.758 0 8.9102-3.5391 17.457-9.8398 23.758-6.3008 6.3008-14.848 9.8398-23.758 9.8398-8.9102 0-17.457-3.5391-23.758-9.8398-6.3047-6.3008-9.8438-14.848-9.8438-23.758 0-8.9102 3.5391-17.457 9.8438-23.758 6.3008-6.3047 14.848-9.8438 23.758-9.8438z"/>
  <path d="m467.6 296.8h-224c-14.855 0-29.098 5.8984-39.598 16.402-10.504 10.5-16.402 24.746-16.402 39.598v44.801c0 14.852 5.8984 29.094 16.402 39.598 10.5 10.5 24.742 16.402 39.598 16.402h224c14.852 0 29.094-5.9023 39.598-16.402 10.5-10.504 16.402-24.746 16.402-39.598v-44.801c0-14.852-5.9023-29.098-16.402-39.598-10.504-10.504-24.746-16.402-39.598-16.402zm11.199 100.8c0 2.9688-1.1797 5.8164-3.2812 7.918-2.1016 2.1016-4.9492 3.2812-7.918 3.2812h-224c-6.1875 0-11.203-5.0156-11.203-11.199v-44.801c0-6.1875 5.0156-11.199 11.203-11.199h224c2.9688 0 5.8164 1.1797 7.918 3.2773 2.1016 2.1016 3.2812 4.9492 3.2812 7.9219z"/>
 
 </g>
</svg>
