<?xml version="1.0" encoding="UTF-8"?>
<svg width="700pt" height="700pt" version="1.1" viewBox="0 0 700 700" xmlns="http://www.w3.org/2000/svg" xmlns:xlink="http://www.w3.org/1999/xlink">

 <g>
  <path d="m193.2 302.4h39.984c10.805 0 21.141-4.4102 28.617-12.207 5.6328-5.6484 9.3164-12.945 10.527-20.832 3.4648-25.242 18.977-47.227 41.598-58.949 22.621-11.723 49.527-11.723 72.148 0 22.621 11.723 38.133 33.707 41.598 58.949 1.2109 7.8867 4.8945 15.184 10.527 20.832 7.4766 7.7969 17.812 12.207 28.617 12.207h39.984c5.9414 0 11.637-2.3594 15.84-6.5586 4.1992-4.2031 6.5586-9.8984 6.5586-15.84s-2.3594-11.637-6.5586-15.84c-4.2031-4.1992-9.8984-6.5586-15.84-6.5586h-35.672c-3.1562-16.996-9.8555-33.141-19.656-47.379l25.254-25.422c4.207-4.2031 6.5703-9.9023 6.5703-15.848s-2.3633-11.648-6.5703-15.848c-4.1992-4.207-9.9023-6.5703-15.848-6.5703-5.9453 0-11.645 2.3633-15.848 6.5703l-25.258 25.258 0.003906-0.003906c-14.254-9.7422-30.395-16.383-47.379-19.488v-35.672c0-5.9414-2.3594-11.637-6.5586-15.84-4.2031-4.1992-9.8984-6.5586-15.84-6.5586s-11.637 2.3594-15.84 6.5586c-4.1992 4.2031-6.5586 9.8984-6.5586 15.84v35.672c-16.996 3.1562-33.141 9.8555-47.379 19.656l-25.422-25.254c-4.2031-4.207-9.9023-6.5703-15.848-6.5703s-11.648 2.3633-15.848 6.5703c-4.207 4.1992-6.5703 9.9023-6.5703 15.848 0 5.9453 2.3633 11.645 6.5703 15.848l25.258 25.258-0.003906-0.003906c-9.7422 14.254-16.383 30.395-19.488 47.379h-35.672c-5.9414 0-11.637 2.3594-15.84 6.5586-4.1992 4.2031-6.5586 9.8984-6.5586 15.84s2.3594 11.637 6.5586 15.84c4.2031 4.1992 9.8984 6.5586 15.84 6.5586z"/>
  <path d="m244.55 353.75-22.398 22.398c-5.6641 5.6602-7.875 13.914-5.8008 21.648 2.0703 7.7344 8.1133 13.777 15.848 15.848 7.7344 2.0742 15.988-0.13672 21.648-5.8008l22.398-22.398c5.6641-5.6641 7.875-13.914 5.8008-21.648-2.0703-7.7344-8.1133-13.777-15.848-15.848-7.7344-2.0742-15.984 0.13672-21.648 5.8008z"/>
  <path d="m477.85 407.85c4.207-4.2031 6.5703-9.9023 6.5703-15.848s-2.3633-11.645-6.5703-15.848l-22.398-22.398c-5.6641-5.6641-13.914-7.875-21.648-5.8008-7.7344 2.0703-13.777 8.1133-15.848 15.848-2.0742 7.7344 0.13672 15.984 5.8008 21.648l22.398 22.398c4.2031 4.207 9.9023 6.5703 15.848 6.5703s11.645-2.3633 15.848-6.5703z"/>
  <path d="m350 380.8c-5.9414 0-11.637 2.3594-15.84 6.5586-4.1992 4.2031-6.5586 9.8984-6.5586 15.84v33.602c0 8.0039 4.2695 15.398 11.199 19.398 6.9297 4 15.469 4 22.398 0 6.9297-4 11.199-11.395 11.199-19.398v-33.602c0-5.9414-2.3594-11.637-6.5586-15.84-4.2031-4.1992-9.8984-6.5586-15.84-6.5586z"/>
 
 </g>
</svg>
