<?xml version="1.0" encoding="UTF-8"?>
<svg width="700pt" height="700pt" version="1.1" viewBox="0 0 700 700" xmlns="http://www.w3.org/2000/svg" xmlns:xlink="http://www.w3.org/1999/xlink">

 <g>
  <path d="m193.2 403.2h33.602v33.602c0 8.0039 4.2695 15.398 11.199 19.398s15.469 4 22.398 0c6.9336-4 11.203-11.395 11.203-19.398v-33.602h33.602-0.003906c8.0039 0 15.398-4.2695 19.398-11.199 4.0039-6.9297 4.0039-15.469 0-22.398-4-6.9336-11.395-11.203-19.398-11.203h-33.598v-33.598c0-8.0039-4.2695-15.398-11.203-19.398-6.9297-4.0039-15.469-4.0039-22.398 0-6.9297 4-11.199 11.395-11.199 19.398v33.602l-33.602-0.003906c-8.0039 0-15.398 4.2695-19.398 11.203-4 6.9297-4 15.469 0 22.398s11.395 11.199 19.398 11.199"/>
  <path d="m445.2 212.8h-10.023c2.9492-14.543 4.4297-29.348 4.4258-44.184v-0.61719c0-17.824-7.082-34.914-19.684-47.516-12.602-12.605-29.695-19.684-47.52-19.684-14.777 0-28.609 7.293-36.957 19.488l-77.785 108.41c-3.0039 4.4531-4.2891 9.8438-3.6094 15.168 0.67578 5.3281 3.2695 10.227 7.293 13.781 4.0234 3.5586 9.2031 5.5273 14.57 5.5469h0.73047c7.2891-0.046875 14.102-3.6406 18.254-9.6328l77.504-107.96c5.9414 0 11.641 2.3594 15.84 6.5586 4.2031 4.2031 6.5625 9.8984 6.5625 15.84v0.55859c0.003907 14.461-1.7617 28.867-5.2656 42.898l-5.0977 20.383h0.003906c-1.5742 6.1836-0.20312 12.75 3.7188 17.789 3.918 5.0352 9.9453 7.9766 16.328 7.9727h41.383c8.2734-0.13672 16.363 2.4141 23.059 7.2734 6.6953 4.8555 11.633 11.758 14.07 19.66 2.3242 8.3281 1.6484 17.207-1.9023 25.09l-41.16 91.559c-1.7734 3.9375-4.6445 7.2812-8.2695 9.625-3.625 2.3477-7.8555 3.5938-12.172 3.5898h-41.496c-8.0039 0-15.398 4.2695-19.398 11.203-4 6.9297-4 15.469 0 22.398s11.395 11.199 19.398 11.199h41.496c12.945-0.003907 25.613-3.75 36.484-10.781 10.867-7.0352 19.473-17.059 24.781-28.867l41.215-91.559c4.7617-10.559 7.207-22.016 7.168-33.602 0.054688-44.742-39.145-81.59-83.945-81.59"/>
 
 </g>
</svg>
