<?xml version="1.0" encoding="UTF-8"?>
<svg width="700pt" height="700pt" version="1.1" viewBox="0 0 700 700" xmlns="http://www.w3.org/2000/svg" xmlns:xlink="http://www.w3.org/1999/xlink">

 <g>
  <path d="m198.8 347.2c-0.015625 5.9102 1.5312 11.723 4.4805 16.844 2.9492 5.125 7.1992 9.3789 12.32 12.332l117.6 67.199h-0.003906c10.398 6.0039 23.203 6.0039 33.602 0l117.6-67.199h-0.003906c5.1211-2.9531 9.3711-7.207 12.32-12.332 2.9492-5.1211 4.4961-10.934 4.4805-16.844v-134.4c0.015625-5.9102-1.5312-11.723-4.4805-16.844-2.9492-5.125-7.1992-9.3789-12.32-12.332l-117.6-67.199h0.003906c-5.1094-2.9492-10.902-4.5039-16.801-4.5039s-11.691 1.5547-16.801 4.5039l-117.6 67.199h0.003906c-5.1211 2.9531-9.3711 7.207-12.32 12.332-2.9492 5.1211-4.4961 10.934-4.4805 16.844zm33.602-134.4 117.6-67.199 117.6 67.199v134.4l-117.6 67.199-117.6-67.199z"/>
  <path d="m428.4 272.55c-0.65234-11.68-7.332-22.18-17.637-27.719l-72.801-39.199c-10.414-5.6211-23.016-5.3516-33.176 0.71094s-16.387 17.023-16.387 28.855v89.602c0 8.2188 3.0156 16.152 8.4688 22.301 5.4531 6.1484 12.973 10.082 21.137 11.059 8.1602 0.98047 16.395-1.0664 23.148-5.7539l72.801-50.398c9.6055-6.6406 15.078-17.793 14.445-29.457zm-106.4 52.25v-89.602l72.801 39.199z"/>
 
 </g>
</svg>
