<?xml version="1.0" encoding="UTF-8"?>
<svg width="700pt" height="700pt" version="1.1" viewBox="0 0 700 700" xmlns="http://www.w3.org/2000/svg" xmlns:xlink="http://www.w3.org/1999/xlink">
 <g>
  <path d="m350 459.2c47.527 0 93.105-18.879 126.71-52.484 33.605-33.609 52.484-79.188 52.484-126.71s-18.879-93.105-52.484-126.71c-33.609-33.605-79.188-52.484-126.71-52.484s-93.105 18.879-126.71 52.484c-33.605 33.609-52.484 79.188-52.484 126.71 0 31.457 8.2812 62.359 24.008 89.602 15.727 27.242 38.348 49.863 65.59 65.59 27.242 15.727 58.145 24.008 89.602 24.008zm0-313.6v0.003906c35.645 0 69.832 14.16 95.035 39.363s39.363 59.391 39.363 95.035-14.16 69.832-39.363 95.035-59.391 39.363-95.035 39.363-69.832-14.16-95.035-39.363-39.363-59.391-39.363-95.035 14.16-69.832 39.363-95.035 59.391-39.363 95.035-39.363z"/>
  <path d="m361.2 313.6h44.801c8.0039 0 15.398-4.2695 19.398-11.203 4-6.9297 4-15.469 0-22.398s-11.395-11.199-19.398-11.199h-44.801v-50.402c0-8-4.2695-15.395-11.199-19.398-6.9297-4-15.469-4-22.398 0-6.9336 4.0039-11.203 11.398-11.203 19.398v50.402c0 11.883 4.7227 23.277 13.125 31.676 8.3984 8.4023 19.793 13.125 31.676 13.125z"/>
 </g>
</svg>
