<?xml version="1.0" encoding="UTF-8"?>
<svg width="700pt" height="700pt" version="1.1" viewBox="0 0 700 700" xmlns="http://www.w3.org/2000/svg" xmlns:xlink="http://www.w3.org/1999/xlink">

 <g>
  <path d="m522.76 202.16c-3.9375-23.824-15.234-45.816-32.309-62.891s-39.07-28.375-62.895-32.309c-51.809-8.6992-104.71-8.6992-156.52 0-23.137 4.0273-44.457 15.117-61.039 31.75l-0.67188 0.67187c-16.906 16.66-28.148 38.207-32.145 61.602-8.7148 51.902-8.7148 104.89 0 156.8 3.9883 23.773 15.312 45.703 32.383 62.723 17.07 17.02 39.031 28.277 62.816 32.195 25.652 4.2773 51.613 6.4531 77.617 6.4961 26.383-0.011719 52.719-2.2227 78.734-6.6055 23.164-3.8633 44.566-14.797 61.266-31.305l0.67188-0.67187c16.914-16.652 28.16-38.203 32.145-61.602 4.3203-26.113 6.457-52.547 6.3828-79.016-0.015625-26.078-2.168-52.113-6.4375-77.84zm-44.355 149.18c-2.4258 14.242-9.2617 27.367-19.543 37.52-10.137 10.301-23.266 17.141-37.52 19.543-23.57 3.9883-47.438 5.9922-71.344 5.9922-23.598 0.066406-47.16-1.8047-70.449-5.5977-14.621-2.3633-28.129-9.2734-38.605-19.746-10.473-10.477-17.383-23.984-19.746-38.605-7.875-46.938-7.875-94.855 0-141.79 2.4297-14.242 9.2656-27.367 19.543-37.52 10.141-10.301 23.27-17.141 37.523-19.543 46.914-7.8789 94.816-7.8789 141.73 0 14.648 2.2539 28.215 9.0664 38.773 19.473 10.555 10.402 17.562 23.871 20.027 38.484 3.793 23.289 5.668 46.852 5.5977 70.449 0 23.906-2.0078 47.77-5.9922 71.344z"/>
  <path d="m413 233.13-60.762-35.449c-10.914-6.3555-23.719-8.6523-36.16-6.4961-12.445 2.1602-23.727 8.6406-31.863 18.301-8.1367 9.6602-12.602 21.879-12.613 34.508v72.016c-0.003906 12.629 4.4492 24.852 12.578 34.512 8.1289 9.6641 19.41 16.148 31.852 18.305 12.441 2.1602 25.242-0.14453 36.152-6.5039l60.816-35.449c16.441-9.6367 26.559-27.254 26.602-46.312v-1.1211 0.003906c-0.042968-19.059-10.16-36.676-26.602-46.312zm-18.199 47.43c-0.015625 3.1328-1.6758 6.0234-4.3672 7.6172l-60.762 35.449c-1.3633 0.78125-2.9102 1.1836-4.4805 1.1758-4.8555 0-8.793-3.9375-8.793-8.793v-72.016c0-4.8555 3.9375-8.793 8.793-8.793 1.5703-0.007813 3.1172 0.39453 4.4805 1.1758l60.762 35.449c2.6914 1.5938 4.3516 4.4844 4.3672 7.6172z"/>
 
 </g>
</svg>
