  <svg
    xmlns="http://www.w3.org/2000/svg"
    viewBox="170.85 107.35 358.35 345.29"
  >
    <path d="M445.2 280a44.799 44.799 0 0 0-21.336-38.137l-72.801-44.801a44.79 44.79 0 0 0-30.418-6.09 44.79 44.79 0 0 0-37.844 44.227v89.602a44.789 44.789 0 0 0 37.844 44.227 44.791 44.791 0 0 0 30.418-6.09l72.801-44.8A44.799 44.799 0 0 0 445.2 280m-117.6 44.801V235.2L400.401 280zM208.71 224.28a22.402 22.402 0 0 0-19.938-1.23 22.409 22.409 0 0 0-12.988 15.171 179.918 179.918 0 0 0 0 83.664 22.394 22.394 0 0 0 12.918 15.25A22.404 22.404 0 0 0 208.655 336a22.416 22.416 0 0 0 9.316-10.523 22.41 22.41 0 0 0 1.211-14.004 134.457 134.457 0 0 1 0-62.383 22.405 22.405 0 0 0-10.527-24.531M491.34 224a22.416 22.416 0 0 0-9.316 10.523 22.41 22.41 0 0 0-1.211 14.004 134.457 134.457 0 0 1 0 62.383 22.405 22.405 0 0 0 10.527 24.531 22.402 22.402 0 0 0 32.93-13.945 179.71 179.71 0 0 0 0-83.664 22.411 22.411 0 0 0-13.027-15.102 22.405 22.405 0 0 0-19.902 1.27M401.07 108.25a22.405 22.405 0 0 0-19.734 3.602 22.416 22.416 0 0 0-8.938 17.96 22.418 22.418 0 0 0 4.403 13.306 22.39 22.39 0 0 0 11.445 8.086 134.386 134.386 0 0 1 54.098 31.25 22.405 22.405 0 0 0 21.375 4.523 22.388 22.388 0 0 0 15.059-15.824 22.395 22.395 0 0 0-5.578-21.125 179.198 179.198 0 0 0-72.13-41.777M468.83 374.47a22.397 22.397 0 0 0-26.488 3.078 134.375 134.375 0 0 1-54.098 31.25 22.388 22.388 0 0 0-11.445 8.086 22.416 22.416 0 0 0-4.402 13.305c0 7.05 3.32 13.691 8.96 17.922s12.946 5.559 19.712 3.582a179.22 179.22 0 0 0 72.129-41.719 22.399 22.399 0 0 0-4.367-35.504M311.75 408.8a134.386 134.386 0 0 1-54.098-31.25 22.405 22.405 0 0 0-21.375-4.523 22.388 22.388 0 0 0-15.059 15.824 22.395 22.395 0 0 0 5.578 21.125 179.198 179.198 0 0 0 72.13 41.777 22.405 22.405 0 0 0 19.733-3.602 22.416 22.416 0 0 0 8.938-17.961 22.418 22.418 0 0 0-4.403-13.305 22.39 22.39 0 0 0-11.445-8.086M231.17 185.53a22.397 22.397 0 0 0 26.488-3.078 134.375 134.375 0 0 1 54.098-31.25 22.388 22.388 0 0 0 11.445-8.086 22.416 22.416 0 0 0 4.402-13.305c0-7.05-3.32-13.691-8.96-17.922s-12.946-5.559-19.712-3.582a179.22 179.22 0 0 0-72.129 41.719 22.399 22.399 0 0 0 4.367 35.504" />
  </svg>