<?xml version="1.0" encoding="utf-8"?>
<!-- Svg Vector Icons : http://www.onlinewebfonts.com/icon -->
<!DOCTYPE svg PUBLIC "-//W3C//DTD SVG 1.1//EN" "http://www.w3.org/Graphics/SVG/1.1/DTD/svg11.dtd">
<svg version="1.1" xmlns="http://www.w3.org/2000/svg" xmlns:xlink="http://www.w3.org/1999/xlink" fill="white" x="0px" y="0px" viewBox="0 0 1000 1000" enable-background="new 0 0 1000 1000" xml:space="preserve">
<metadata> Svg Vector Icons : http://www.onlinewebfonts.com/icon </metadata>
<g><path d="M197,839.1c0,38.7,31.3,70,70,70c38.7,0,70-31.3,70-70c0-38.7-31.3-70-70-70C228.3,769.1,197,800.4,197,839.1z"/><path d="M586.2,839.1c0,38.7,31.3,70,70,70c38.7,0,70-31.3,70-70c0-38.7-31.3-70-70-70C617.6,769.1,586.2,800.4,586.2,839.1z"/><path d="M955,259c-33.5-19.3-76.3-7.8-95.6,25.6L660.3,580.9H360v-420c0-38.7-31.3-70-70-70H80c-38.7,0-70,31.3-70,70c0,38.7,31.3,70,70,70h140v420c0,38.7,31.3,70,70,70h392.3c44,0,67.1-24.8,97-66.6l201.3-299.6C1000,321.2,988.5,278.4,955,259z"/></g>
</svg>