<?xml version='1.0' encoding='iso-8859-1'?>
<svg version="1.1" xmlns="http://www.w3.org/2000/svg" fill="#ffffff" viewBox="0 0 32 32" xmlns:xlink="http://www.w3.org/1999/xlink" enable-background="new 0 0 32 32">
  <g>
    <path d="M16,5c0.9,0,2-2.1,2-3.1S17.1,0,16,0s-2,0.8-2,1.9C14,2.9,15.1,5,16,5z"/>
    <path d="m16,27c-0.9,0-2,2.1-2,3.1s0.9,1.9 2,1.9 2-0.8 2-1.9c0-1-1.1-3.1-2-3.1z"/>
    <path d="m30.1,14c-1,0-3.1,1.1-3.1,2s2.1,2 3.1,2 1.9-0.9 1.9-2-0.8-2-1.9-2z"/>
    <path d="M5,16c0-0.9-2.1-2-3.1-2S0,14.9,0,16s0.8,2,1.9,2C2.9,18,5,16.9,5,16z"/>
    <path d="m16,8c-4.4,0-8,3.6-8,8s3.6,8 8,8 8-3.6 8-8-3.6-8-8-8zm-4.7,11.7c-0.8-1-1.3-2.3-1.3-3.7 0-3.3 2.7-6 6-6 1.7,0 3.1,0.7 4.2,1.8 4.1,3.9-7,10.3-8.9,7.9z"/>
    <circle cx="5" cy="5" r="2"/>
    <circle cx="27" cy="5" r="2"/>
    <circle cx="5" cy="27" r="2"/>
    <circle cx="27" cy="27" r="2"/>
  </g>
</svg>
